<svg width="16" height="18" viewBox="0 0 16 18" fill="none" xmlns="http://www.w3.org/2000/svg">
  <path d="M10.5 0C11.1 0 12 0.3 12.9 0.8C13.7 1.3 14.4 1.9 15 2.7C14.3 3.1 13.7 3.6 13.3 4.2C12.8 4.8 12.6 5.5 12.6 6.3C12.6 7.2 12.9 8 13.4 8.6C13.9 9.3 14.5 9.7 15.2 9.9C14.9 10.8 14.5 11.7 14 12.5C13.3 13.6 12.6 14.4 11.9 15C11.2 15.6 10.5 15.9 9.7 15.9C9.2 15.9 8.6 15.8 8 15.5C7.4 15.2 6.9 15.1 6.3 15.1C5.7 15.1 5.1 15.2 4.6 15.5C4 15.8 3.5 15.9 3.1 15.9C2.2 15.9 1.4 15.5 0.8 14.8C0.1 14 -0.3 12.9 -0.4 11.5C-0.5 10.1 -0.2 8.9 0.4 7.9C1 6.9 1.8 6.1 2.7 5.6C3.6 5.1 4.6 4.8 5.6 4.8C6.2 4.8 6.9 4.9 7.6 5.2C8.3 5.5 8.8 5.6 9.1 5.6C9.4 5.6 9.9 5.4 10.5 5.1C11.2 4.8 11.8 4.7 12.3 4.7C13.2 4.7 14 4.9 14.8 5.4C13.8 3.7 12.4 2.7 10.5 2.6V0ZM8.1 4.4C7.6 3.8 7.1 3.3 6.6 3C6.1 2.7 5.5 2.5 5 2.5C4.9 3.3 5.1 4.1 5.5 4.8C6 5.5 6.7 6 7.6 6.3C7.7 5.5 7.5 4.9 8.1 4.4Z" fill="#FBFBFB"/>
</svg>
