<svg width="17" height="19" viewBox="0 0 17 19" fill="none" xmlns="http://www.w3.org/2000/svg">
<g clip-path="url(#clip0_1_292)">
<path d="M14.09 9.78299C14.0815 8.30818 14.7852 7.19502 16.2095 6.37523C15.4126 5.29422 14.2087 4.69946 12.6191 4.58293C11.1143 4.47043 9.46954 5.41478 8.86764 5.41478C8.23179 5.41478 6.77358 4.62314 5.62905 4.62314C3.26371 4.65929 0.75 6.41141 0.75 9.97588C0.75 11.0288 0.95347 12.1165 1.36041 13.239C1.903 14.7138 3.8614 18.3305 5.90459 18.2702C6.97282 18.2462 7.72733 17.5509 9.11773 17.5509C10.4657 17.5509 11.1651 18.2702 12.3563 18.2702C14.4164 18.2421 16.1883 14.9549 16.7055 13.4761C13.9417 12.2424 14.09 9.85934 14.09 9.78299ZM11.6908 3.18447C12.848 1.88245 12.742 0.696966 12.7081 0.270996C11.6865 0.327256 10.5039 0.930045 9.82989 1.67348C9.08806 2.46916 8.65145 3.45372 8.7447 4.56284C9.85107 4.64323 10.8599 4.10474 11.6908 3.18447Z" fill="#FBFBFB"/>
</g>
<defs>
<clipPath id="clip0_1_292">
<rect width="16" height="18" fill="white" transform="translate(0.75 0.270996)"/>
</clipPath>
</defs>
</svg>