<svg width="18" height="18" viewBox="0 0 18 18" fill="none" xmlns="http://www.w3.org/2000/svg">
  <path d="M17.8 9.2c0-.6-.1-1.2-.2-1.8H9v3.4h4.9c-.2 1.1-.9 2.1-1.8 2.7v2.3h2.9c1.7-1.6 2.7-3.9 2.7-6.6z" fill="#4285F4"/>
  <path d="M9 18c2.4 0 4.5-.8 6-2.2l-2.9-2.3c-.8.5-1.8.9-3.1.9-2.4 0-4.4-1.6-5.1-3.8H1v2.4c1.5 3 4.6 5 8 5z" fill="#34A853"/>
  <path d="M3.9 10.7c-.2-.6-.3-1.3-.3-2s.1-1.4.3-2V4.3H1c-.6 1.2-1 2.6-1 4s.4 3.1 1 4.4l2.9-2z" fill="#FBBC05"/>
  <path d="M9 3.6c1.3 0 2.5.5 3.4 1.3l2.6-2.6C13.5.9 11.4 0 9 0 5.6 0 2.5 2 1 4.9l2.9 2.3c.7-2.2 2.7-3.8 5.1-3.8z" fill="#EA4335"/>
</svg>